<svg xmlns="http://www.w3.org/2000/svg" width="108" height="100" fill="none" viewBox="0 0 108 100"><g filter="url(#filter0_d)"><rect width="61.017" height="53.616" x="4" y="4" fill="#E5F0FF" rx="8"/><rect width="57.017" height="49.616" x="6" y="6" stroke="#4D97FF" stroke-opacity=".4" stroke-width="4" rx="6"/></g><path fill="#4D97FF" fill-opacity=".4" d="M4 12C4 7.58172 7.58172 4 12 4H57.0169C61.4352 4 65.0169 7.58172 65.0169 12V38.5912H4V12Z"/><g filter="url(#filter1_d)"><rect width="61.017" height="53.616" x="23.491" y="23.025" fill="#E5F0FF" rx="8"/><rect width="57.017" height="49.616" x="25.491" y="25.025" stroke="#4D97FF" stroke-opacity=".4" stroke-width="4" rx="6"/></g><path fill="#4D97FF" fill-opacity=".4" d="M23.4912 31.0249C23.4912 26.6066 27.0729 23.0249 31.4912 23.0249H76.5082C80.9264 23.0249 84.5082 26.6066 84.5082 31.0249V57.6161H23.4912V31.0249Z"/><g filter="url(#filter2_d)"><rect width="61.017" height="53.616" x="42.983" y="42.05" fill="#E5F0FF" rx="8"/><rect width="57.017" height="49.616" x="44.983" y="44.05" stroke="#4D97FF" stroke-opacity=".4" stroke-width="4" rx="6"/></g><path fill="#4D97FF" fill-opacity=".4" d="M42.9834 50.0505C42.9834 45.6323 46.5651 42.0505 50.9834 42.0505H96.0003C100.419 42.0505 104 45.6323 104 50.0505V76.6417H42.9834V50.0505Z"/><defs><filter id="filter0_d" width="69.017" height="61.616" x="0" y="0" color-interpolation-filters="sRGB" filterUnits="userSpaceOnUse"><feFlood flood-opacity="0" result="BackgroundImageFix"/><feColorMatrix in="SourceAlpha" type="matrix" values="0 0 0 0 0 0 0 0 0 0 0 0 0 0 0 0 0 0 127 0"/><feMorphology in="SourceAlpha" operator="dilate" radius="4" result="effect1_dropShadow"/><feOffset/><feColorMatrix type="matrix" values="0 0 0 0 0.92549 0 0 0 0 0.956863 0 0 0 0 1 0 0 0 1 0"/><feBlend in2="BackgroundImageFix" mode="normal" result="effect1_dropShadow"/><feBlend in="SourceGraphic" in2="effect1_dropShadow" mode="normal" result="shape"/></filter><filter id="filter1_d" width="69.017" height="61.616" x="19.491" y="19.025" color-interpolation-filters="sRGB" filterUnits="userSpaceOnUse"><feFlood flood-opacity="0" result="BackgroundImageFix"/><feColorMatrix in="SourceAlpha" type="matrix" values="0 0 0 0 0 0 0 0 0 0 0 0 0 0 0 0 0 0 127 0"/><feMorphology in="SourceAlpha" operator="dilate" radius="4" result="effect1_dropShadow"/><feOffset/><feColorMatrix type="matrix" values="0 0 0 0 0.92549 0 0 0 0 0.956863 0 0 0 0 1 0 0 0 1 0"/><feBlend in2="BackgroundImageFix" mode="normal" result="effect1_dropShadow"/><feBlend in="SourceGraphic" in2="effect1_dropShadow" mode="normal" result="shape"/></filter><filter id="filter2_d" width="69.017" height="61.616" x="38.983" y="38.05" color-interpolation-filters="sRGB" filterUnits="userSpaceOnUse"><feFlood flood-opacity="0" result="BackgroundImageFix"/><feColorMatrix in="SourceAlpha" type="matrix" values="0 0 0 0 0 0 0 0 0 0 0 0 0 0 0 0 0 0 127 0"/><feMorphology in="SourceAlpha" operator="dilate" radius="4" result="effect1_dropShadow"/><feOffset/><feColorMatrix type="matrix" values="0 0 0 0 0.92549 0 0 0 0 0.956863 0 0 0 0 1 0 0 0 1 0"/><feBlend in2="BackgroundImageFix" mode="normal" result="effect1_dropShadow"/><feBlend in="SourceGraphic" in2="effect1_dropShadow" mode="normal" result="shape"/></filter></defs></svg>